<?xml version="1.0" encoding="UTF-8" standalone="no"?>
<svg
   fill="none"
   viewBox="0 0 33.869999 31.349993"
   version="1.1"
   id="svg28"
   sodipodi:docname="metamask.svg"
   width="33.869999"
   height="31.349993"
   inkscape:version="1.1 (c68e22c387, 2021-05-23)"
   xmlns:inkscape="http://www.inkscape.org/namespaces/inkscape"
   xmlns:sodipodi="http://sodipodi.sourceforge.net/DTD/sodipodi-0.dtd"
   xmlns="http://www.w3.org/2000/svg"
   xmlns:svg="http://www.w3.org/2000/svg">
  <defs
     id="defs32" />
  <sodipodi:namedview
     id="namedview30"
     pagecolor="#ffffff"
     bordercolor="#666666"
     borderopacity="1.0"
     inkscape:pageshadow="2"
     inkscape:pageopacity="0.0"
     inkscape:pagecheckerboard="0"
     showgrid="false"
     fit-margin-top="0"
     fit-margin-left="0"
     fit-margin-right="0"
     fit-margin-bottom="0"
     inkscape:zoom="6.5232558"
     inkscape:cx="85.080214"
     inkscape:cy="15.559715"
     inkscape:window-width="2560"
     inkscape:window-height="1369"
     inkscape:window-x="-8"
     inkscape:window-y="-8"
     inkscape:window-maximized="1"
     inkscape:current-layer="svg28" />
  <path
     fill="#e17726"
     stroke="#e17726"
     stroke-linecap="round"
     stroke-linejoin="round"
     stroke-width="0.25"
     d="m 32.085,0.12499221 -13.14,9.71999999 2.45,-5.73 z"
     id="path4" />
  <path
     fill="#e27625"
     stroke="#e27625"
     stroke-linecap="round"
     stroke-linejoin="round"
     stroke-width="0.25"
     d="M 1.7849996,0.12499221 14.805,9.9249922 l -2.33,-5.8 z M 27.355,22.654992 l -3.5,5.34 7.49,2.06 2.14,-7.28 z m -26.96000043,0.12 2.13000003,7.28 7.47,-2.06 -3.48,-5.34 z"
     id="path6" />
  <path
     fill="#e27625"
     stroke="#e27625"
     stroke-linecap="round"
     stroke-linejoin="round"
     stroke-width="0.25"
     d="m 9.5949996,13.634992 -2.08,3.14 7.4000004,0.34 -0.24,-7.9699998 -5.0800004,4.4999998 z m 14.6800004,0.01 -5.16,-4.5999998 -0.17,8.0699998 7.4,-0.34 z m -14.2800004,14.35 4.4900004,-2.16 -3.86,-3 z m 9.4000004,-2.17 4.46,2.17 -0.6,-5.17 z"
     id="path8" />
  <path
     fill="#d5bfb2"
     stroke="#d5bfb2"
     stroke-linecap="round"
     stroke-linejoin="round"
     stroke-width="0.25"
     d="m 23.855,27.994992 -4.46,-2.16 0.36,2.9 -0.04,1.23 z m -13.8600004,0 4.1600004,1.97 -0.03,-1.23 0.36,-2.9 z"
     id="path10" />
  <path
     fill="#233447"
     stroke="#233447"
     stroke-linecap="round"
     stroke-linejoin="round"
     stroke-width="0.25"
     d="m 14.225,20.904992 -3.7,-1.08 2.62,-1.2 1.09,2.28 z m 5.41,0 1.1,-2.29 2.63,1.2 -3.73,1.1 z"
     id="path12" />
  <path
     fill="#cc6228"
     stroke="#cc6228"
     stroke-linecap="round"
     stroke-linejoin="round"
     stroke-width="0.25"
     d="m 9.9949996,27.994992 0.6500004,-5.34 -4.1300004,0.12 z m 13.2300004,-5.34 0.63,5.34 3.5,-5.22 z m 3.13,-5.88 -7.4,0.34 0.68,3.8 1.1,-2.3 2.63,1.2 z m -15.83,3.05 2.62,-1.2 1.09,2.28 0.69,-3.8 -7.4000004,-0.33 z"
     id="path14" />
  <path
     fill="#e27525"
     stroke="#e27525"
     stroke-linecap="round"
     stroke-linejoin="round"
     stroke-width="0.25"
     d="m 7.5249996,16.774992 3.1000004,6.05 -0.1,-3 z m 15.8400004,3.05 -0.12,3 3.1,-6.05 z m -8.44,-2.71 -0.7,3.8 0.88,4.48 0.2,-5.91 z m 4.02,0 -0.36,2.36 0.18,5.92 0.87,-4.49 -0.69,-3.8 z"
     id="path16" />
  <path
     fill="#f5841f"
     stroke="#f5841f"
     stroke-linecap="round"
     stroke-linejoin="round"
     stroke-width="0.25"
     d="m 19.635,20.904992 -0.87,4.49 0.63,0.44 3.85,-3 0.12,-3.01 z m -9.11,-1.08 0.1,3 3.86,3 0.62,-0.43 -0.87,-4.49 -3.72,-1.08 z"
     id="path18" />
  <path
     fill="#c0ac9d"
     stroke="#c0ac9d"
     stroke-linecap="round"
     stroke-linejoin="round"
     stroke-width="0.25"
     d="m 19.725,29.964992 0.03,-1.23 -0.34,-0.28 h -4.96 l -0.33,0.28 0.03,1.23 -4.1600004,-1.97 1.4600004,1.2 2.95,2.03 h 5.05 l 2.96,-2.04 1.44,-1.19 -4.14,1.97 z"
     id="path20" />
  <path
     fill="#161616"
     stroke="#161616"
     stroke-linecap="round"
     stroke-linejoin="round"
     stroke-width="0.25"
     d="m 19.395,25.824992 -0.63,-0.43 h -3.66 l -0.62,0.44 -0.36,2.9 0.33,-0.28 h 4.96 l 0.34,0.28 -0.36,-2.9 z"
     id="path22" />
  <path
     fill="#763e1a"
     stroke="#763e1a"
     stroke-linecap="round"
     stroke-linejoin="round"
     stroke-width="0.25"
     d="m 32.645,10.474992 1.1,-5.3499998 -1.66,-4.99999999 -12.7,9.39999999 4.89,4.1099998 6.9,2.01 1.52,-1.77 -0.66,-0.48 1.05,-0.96 -0.8,-0.62 1.05,-0.8 -0.7,-0.54 z M 0.12499957,5.1149922 1.2449996,10.474992 l -0.72000003,0.53 1.07000003,0.8 -0.80000003,0.63 1.04000003,0.96 -0.66,0.48 1.52,1.77 6.9,-2 L 14.485,9.5149922 1.7849996,0.12499221 Z"
     id="path24" />
  <path
     fill="#f5841f"
     stroke="#f5841f"
     stroke-linecap="round"
     stroke-linejoin="round"
     stroke-width="0.25"
     d="m 31.175,15.644992 -6.9,-2 2.08,3.13 -3.1,6.05 4.1,-0.05 h 6.13 z m -21.5800004,-2.01 -6.9,2.01 -2.30000003,7.13 H 6.5249996 l 4.1000004,0.05 -3.1000004,-6.05 2.08,-3.14 z m 9.3500004,3.48 0.45,-7.5999998 2,-5.4 h -8.92 l 2,5.4 0.45,7.5999998 0.17,2.38 v 5.9 h 3.67 l 0.02,-5.9 z"
     id="path26" />
</svg>
